<?xml version="1.0" encoding="utf-8"?><svg xml:space="preserve" viewBox="0 0 100 100" y="0" x="0" xmlns="http://www.w3.org/2000/svg" id="圖層_1" version="1.1" width="200px" height="200px" xmlns:xlink="http://www.w3.org/1999/xlink" style="width:100%;height:100%;animation-play-state:paused" ><g class="ldl-scale" style="transform-origin:50% 50% 0px;transform:rotate(0deg) scale(0.8);animation-play-state:paused" ><path fill="#e15b64" d="M65.569 19.949L50 35.518 34.431 19.949c-3.993-3.993-10.49-3.993-14.483 0s-3.993 10.49 0 14.483l15.569 15.569L19.948 65.57c-3.993 3.993-3.993 10.49 0 14.483 3.993 3.993 10.49 3.993 14.483 0L50 64.484l15.569 15.569c3.993 3.993 10.49 3.993 14.483 0s3.993-10.49 0-14.483L64.483 50.001l15.569-15.569c3.993-3.993 3.993-10.49 0-14.483-3.993-3.993-10.49-3.993-14.483 0z" style="fill:rgb(225, 91, 100);animation-play-state:paused" ></path>
<metadata xmlns:d="https://loading.io/stock/" style="animation-play-state:paused" ><d:name style="animation-play-state:paused" >cross</d:name>
<d:tags style="animation-play-state:paused" >times,delete,remove,clear,error,forbid,deny,negative,drop,refuse,reject,cross,form</d:tags>
<d:license style="animation-play-state:paused" >free</d:license>
<d:slug style="animation-play-state:paused" >hevw6u</d:slug></metadata></g><!-- generated by https://loading.io/ --></svg>